<svg width="200" height="200" viewBox="0 0 200 200" fill="none" xmlns="http://www.w3.org/2000/svg">
<g clip-path="url(#clip)">
<path d="M0 0V2L2 0H0ZM12.58 0L12.286 0.286L35.906 23.524L52.286 7.238L45.332 0.094L45.418 0H41.422L41.332 0.094L48.286 7.238L35.906 19.524L16.476 0.384L16.868 0H12.578H12.58ZM26.098 0L28.192 2.094L30.286 0H26.098V0ZM55.046 0L69.332 14.286L64.476 19.332L57.616 12.286L47.906 21.43L64.382 37.714L87.714 14.286L73.372 0H69.356L83.808 14.382L64.476 33.808L52 21.524L57.524 16.384L64.476 23.618L73.43 14.382L59.144 0.094L59.24 0H55.048H55.046ZM83.622 0L93.238 9.618L102.382 0.478L101.906 0H97.812L98.382 0.57L93.238 5.714L87.524 0H83.62H83.622ZM111.758 0L76.478 35.808L85.618 45.048L130 0.666L129.394 0H125.58L126.096 0.57L85.716 40.954L80.572 35.808L115.714 0H111.76H111.758ZM140.856 0L133.616 7.24L149.906 23.524L173.332 0.094L173.238 0H169.336L169.43 0.094L150 19.524L137.714 7.238L142.854 2.094L150 9.238L159.24 0H155.144L149.906 5.24L144.668 0H140.856ZM183.716 0L176.476 7.24L185.616 16.382L200 1.996V0H198.094L185.714 12.382L180.57 7.238L187.81 0H183.714H183.716ZM7.716 4.382L0 12.182V16.262L7.524 8.57L12.856 14.668L0.094 27.048L0 26.948V31.144L16.76 14.954L7.716 4.38V4.382ZM200 12.182L190.856 21.43L200 31.144V26.95L194.856 21.524L200 16.26V12.18V12.182ZM128.476 12.382L119.332 21.522L128.476 30.668L137.616 21.524L128.476 12.384V12.382ZM171.332 12.382L149.906 33.808L142.762 26.668L133.618 35.808L149.906 52.094L180.476 21.524L171.332 12.384V12.382ZM128.476 16.382L133.616 21.522L128.476 26.668L123.332 21.524L128.476 16.384V16.382ZM171.43 16.382L176.57 21.522L150 48.096L137.714 35.81L142.854 30.67L150 37.808L171.43 16.382V16.382ZM21.332 20L0 41.336V45.336L21.332 24L26.476 29.144L0 55.622V59.622L30.476 29.144L21.332 20ZM114.192 26.668L85.618 55.238L70.856 40.478L54.57 56.762L63.714 65.906L70.854 58.762L76.476 64.382L64.192 76.668L42.76 55.238L33.616 64.382L64.19 94.954L114.19 44.954L135.618 66.38L144.762 57.236L114.192 26.666V26.668ZM185.618 27.144L176.478 36.284L199.906 59.714L200 59.622V55.714L180.57 36.286L185.714 31.146L200 45.428V41.334L199.906 41.428L185.618 27.142V27.144ZM43.332 27.332L19.332 50.092L28.476 59.43L43.144 44.954L49.906 52.094L59.146 42.854L43.332 27.332V27.332ZM114.192 30.572L140.76 57.142L135.616 62.282L114.19 40.854L64.19 90.854L37.616 64.284L42.76 59.144L64.19 80.568L80.474 64.284L70.854 54.666L63.714 61.806L58.568 56.666L70.854 44.38L85.614 59.142L114.19 30.568L114.192 30.572ZM43.238 31.43L55.046 42.954L50 48L43.24 40.954L28.57 55.524L23.43 50.284L43.238 31.43V31.43ZM171.332 40.954L162.192 50.094L192.76 80.668L199.998 73.428V69.62L171.332 40.954V40.954ZM171.43 44.954L198 71.524L192.856 76.668L166.286 50.094L171.43 44.954V44.954ZM157.524 54.762L135.618 76.668L128.478 69.524L119.332 78.668L135.618 94.954L166.668 63.906L157.524 54.762V54.762ZM14.192 55.238L5.046 64.382L35.62 94.954L44.764 85.808L14.192 55.24V55.238ZM114.192 55.238L90.76 78.668L99.904 87.808L123.33 64.382L114.19 55.238H114.192ZM157.618 58.762L162.762 63.906L135.714 90.954L123.43 78.668L128.57 73.524L135.714 80.668L157.62 58.762H157.618ZM14.192 59.238L40.76 85.808L35.616 90.954L9.046 64.38L14.192 59.236V59.238ZM114.192 59.238L119.332 64.382L99.906 83.808L94.762 78.668L114.192 59.238ZM171.332 69.524L162.192 78.668L185.618 102.094L194.762 92.954L171.332 69.524V69.524ZM0 69.618V73.43L1.906 71.524L0 69.618ZM171.43 73.524L190.856 92.954L185.716 98.094L166.286 78.668L171.43 73.524ZM7.046 77.144L0 83.754V87.914L5.046 92.762L0 97.946V102.186L14.192 116.382L30.476 100.094L7.046 77.144V77.144ZM7.046 81.046L26.476 100L14.192 112.286L1.906 100L9.046 92.57L2 85.714L7.046 81.046V81.046ZM200 83.754L197.808 85.808L200 87.914V83.754ZM85.618 83.808L76.478 92.954L85.618 102.094L94.762 92.954L85.618 83.808ZM114.192 83.808L90.76 107.24L99.904 116.384L114.19 102.096L135.616 123.526L144.76 114.386L114.19 83.81L114.192 83.808ZM157.144 83.808L140.856 100.094L150 109.238L157.144 102.094L171.43 116.382L180.57 107.238L157.144 83.808V83.808ZM85.618 87.808L90.762 92.954L85.618 98.094L80.478 92.954L85.618 87.808ZM114.192 87.808L140.76 114.382L135.616 119.522L114.19 98.094L99.904 112.382L94.76 107.238L114.19 87.808H114.192ZM157.144 87.808L176.57 107.238L171.43 112.382L157.144 98.094L150 105.238L144.856 100.094L157.144 87.808V87.808ZM49.906 90.954L19.332 121.524L28.476 130.668L59.046 100.094L49.906 90.954V90.954ZM49.906 94.954L55.046 100.094L28.476 126.668L23.332 121.524L49.906 94.954ZM200 97.946L197.906 100.094L200 102.188V97.946ZM71.332 98.094L62.192 107.238L99.906 144.954L123.332 121.524L114.192 112.384L99.906 126.668L71.332 98.094V98.094ZM71.332 102.094L99.906 130.668L114.192 116.382L119.332 121.522L99.906 140.954L66.192 107.238L71.332 102.094ZM193.238 105.714L184.094 114.854L200 130.764V126.666L188.192 114.858L193.332 109.718L200 116.38V112.474L193.24 105.714H193.238ZM57.046 112.382L19.332 150.094L28.476 159.238L42.762 144.954L57.046 159.238L66.192 150.094L51.906 135.808L57.046 130.668L71.332 144.954L80.476 135.808L57.046 112.382V112.382ZM157.046 112.382L140.762 128.668L157.046 144.954L166.192 135.808L159.046 128.668L166.192 121.524L157.046 112.384V112.382ZM0 112.476V116.476L19.332 135.808L14.192 140.954L0 126.76V130.76L14.192 144.952L23.332 135.806L0 112.476ZM57.046 116.286L76.476 135.714L71.332 140.854L57.046 126.57L47.906 135.714L62.192 150L57.046 155.144L42.762 140.856L28.476 155.144L23.332 150L57.046 116.286ZM157.046 116.382L162.192 121.522L155.046 128.668L162.192 135.808L157.046 140.954L144.762 128.668L157.046 116.382V116.382ZM178.476 119.522L169.332 128.668L176.476 135.808L162.668 149.618L171.808 158.762L194.762 135.808L178.476 119.524V119.522ZM178.57 123.522L190.856 135.808L171.906 154.762L166.762 149.618L180.57 135.808L173.43 128.668L178.57 123.524V123.522ZM128.476 126.668L112.192 142.954L121.332 152.094L137.618 135.808L128.478 126.668H128.476ZM128.476 130.668L133.616 135.808L121.332 148.094L116.192 142.954L128.476 130.668V130.668ZM85.616 140.954L57.048 169.524L42.764 155.238L33.62 164.378L57.048 187.808L94.764 150.094L85.62 140.954H85.616ZM142.762 140.954L133.618 150.094L157.046 173.524L166.192 164.378L142.76 140.954H142.762ZM199.906 140.954L176.476 164.378L185.616 173.238L199.906 159.238L200 159.332V155.144L185.714 169.238L180.57 164.286L200 144.856V141.046L199.906 140.954V140.954ZM0 141.046V144.95L33.618 178.57L28.478 183.714L21.332 176.57L7.046 190.856L0 183.808V187.908L7.046 194.954L21.332 180.668L28.476 187.808L37.616 178.668L0 141.048V141.046ZM85.618 144.954L90.762 150.094L57.046 183.808L37.618 164.378L42.762 159.238L57.046 173.524L85.62 144.954H85.618ZM142.762 144.954L162.192 164.378L157.046 169.524L137.618 150.094L142.762 144.954V144.954ZM107.046 148.094L97.906 157.238L107.046 166.378L116.192 157.238L107.046 148.094V148.094ZM107.046 152.094L112.192 157.238L107.046 162.378L101.906 157.238L107.046 152.094ZM0 155.238V159.332L12.192 171.524L7.046 176.856L0 169.62V173.526L7.046 180.854L16.192 171.428L0 155.238ZM128.476 155.238L107.046 176.668L92.762 162.378L83.618 171.524L107.046 194.954L137.62 164.378L128.48 155.238H128.476ZM128.476 159.238L133.616 164.378L107.046 190.954L87.618 171.524L92.762 166.378L107.046 180.668L128.476 159.238V159.238ZM142.762 169.524L126.476 185.808L135.616 194.954L142.762 187.808L149.906 194.954L159.046 185.808L142.762 169.524ZM171.332 169.524L162.192 178.668L178 194.476L187.144 185.332L171.332 169.524ZM199.906 169.524L190.762 178.668L200 187.908V183.714L194.856 178.57L200 173.43V169.62L199.906 169.52V169.524ZM142.856 173.43L155.144 185.714L150 190.854L142.856 183.714L135.716 190.854L130.57 185.714L142.856 173.43V173.43ZM171.43 173.524L183.238 185.332L178.094 190.476L166.286 178.668L171.43 173.524ZM78.476 176.668L69.332 185.808L83.524 200H87.524L73.332 185.808L78.476 180.668L97.812 200H101.812L78.476 176.668V176.668ZM42.286 183.808L28.094 198.094L21.43 191.43L12.578 200H16.864L21.524 195.43L26.098 200H30.286L42.476 187.808L48 193.048L41.42 200H45.418L52 192.856L42.286 183.808V183.808ZM193.238 190.476L183.714 200H187.808L193.332 194.476L198.476 199.616L198.094 200H200V197.24L193.24 190.476H193.238ZM120.954 190.668L111.758 200H115.714L120.854 194.76L125.58 200H129.396L120.956 190.668H120.954ZM64.192 190.856L55.046 200H59.238L64.286 194.954L69.356 200H73.372L64.192 190.856V190.856ZM164.192 190.954L155.144 200H159.238L164.286 194.954L169.336 200H173.238L164.192 190.954ZM0 197.234V200H2L2.382 199.618L0 197.234ZM142.76 198.094L140.856 200H144.668L142.762 198.094H142.76Z" fill="black"/>
</g>

</svg>
