<svg focusable="false" aria-hidden="true" xmlns="http://www.w3.org/2000/svg" width="212.13" height="106.07"><defs><linearGradient id="a" x1="37.57" y1="35.36" x2="103.21" y2="35.36" gradientTransform="rotate(45 70.7047 35.3569)" gradientUnits="userSpaceOnUse"><stop offset="0" stop-color="var(--color-brand)"/><stop offset="1" stop-color="var(--color-brand)" stop-opacity=".7"/></linearGradient><linearGradient id="b" x1="35.36" y1="39.36" x2="35.36" y2="103.37" gradientTransform="rotate(45 35.3585 70.716)" gradientUnits="userSpaceOnUse"><stop offset="0" stop-color="var(--color-brand)"/><stop offset="1" stop-color="var(--color-brand)" stop-opacity=".1"/></linearGradient><linearGradient id="c" x1="123.74" y1="53.03" x2="159.1" y2="17.68" gradientTransform="rotate(45 141.415 35.356)" gradientUnits="userSpaceOnUse"><stop offset="0" stop-color="var(--color-brand)" stop-opacity=".9"/><stop offset="1" stop-color="var(--color-brand)" stop-opacity=".7"/></linearGradient><linearGradient id="d" x1="90.75" y1="86.03" x2="121.15" y2="55.63" gradientTransform="rotate(45 106.0688 70.7151)" gradientUnits="userSpaceOnUse"><stop offset="0" stop-color="var(--color-brand)"/><stop offset="1" stop-color="var(--color-brand)" stop-opacity=".9"/></linearGradient><linearGradient id="e" x1="160.58" y1="54.52" x2="193.25" y2="87.19" gradientTransform="rotate(45 176.7792 70.7143)" gradientUnits="userSpaceOnUse"><stop offset="0" stop-color="var(--color-brand)" stop-opacity=".3"/><stop offset="1" stop-color="var(--color-brand)" stop-opacity=".7"/></linearGradient></defs><path transform="rotate(-45 70.716 35.3585)" fill="url(#a)" d="M45.71 10.36h50v50h-50z"/><path transform="rotate(-45 35.3569 70.7047)" fill="url(#b)" d="M10.36 45.71h50v50h-50z"/><path transform="rotate(-45 141.4263 35.3593)" fill="url(#c)" d="M116.42 10.36h50v50h-50z"/><path transform="rotate(-45 106.0672 70.7055)" fill="url(#d)" d="M81.07 45.71h50v50h-50z"/><path transform="rotate(-45 176.7775 70.7063)" fill="url(#e)" d="M151.78 45.71h50v50h-50z"/></svg>